<svg width="100" height="100" viewBox="0 0 100 100" fill="none" xmlns="http://www.w3.org/2000/svg">
<g clip-path="url(#clip0_8756_4403)">
<path d="M83.0833 47.6667H76.8333V31C76.8333 26.4167 73.0833 22.6667 68.5 22.6667H51.8333V16.4167C51.8333 10.6667 47.1667 6 41.4167 6C35.6667 6 31 10.6667 31 16.4167V22.6667H14.3333C9.75 22.6667 6.04167 26.4167 6.04167 31V46.8333H12.25C18.4583 46.8333 23.5 51.875 23.5 58.0833C23.5 64.2917 18.4583 69.3333 12.25 69.3333H6V85.1667C6 89.75 9.75 93.5 14.3333 93.5H30.1667V87.25C30.1667 81.0417 35.2083 76 41.4167 76C47.625 76 52.6667 81.0417 52.6667 87.25V93.5H68.5C73.0833 93.5 76.8333 89.75 76.8333 85.1667V68.5H83.0833C88.8333 68.5 93.5 63.8333 93.5 58.0833C93.5 52.3333 88.8333 47.6667 83.0833 47.6667Z" fill="#0F059C"/>
</g>
<defs>
<clipPath id="clip0_8756_4403">
<rect width="100" height="100" fill="white"/>
</clipPath>
</defs>
</svg>
